<svg width="1370" height="334" viewBox="0 0 1370 334" fill="none" xmlns="http://www.w3.org/2000/svg">
<path d="M0 25C0 11.1929 11.1929 0 25 0H1345C1358.81 0 1370 11.1929 1370 25V309C1370 322.807 1358.81 334 1345 334H25C11.1929 334 0 322.807 0 309V25Z" fill="url(#paint0_linear)"/>
<mask id="mask0" mask-type="alpha" maskUnits="userSpaceOnUse" x="0" y="0" width="1370" height="334">
<path d="M0 24C0 15.5992 0 11.3988 1.6349 8.19014C3.073 5.36771 5.36771 3.073 8.19014 1.6349C11.3988 0 15.5992 0 24 0H1346C1354.4 0 1358.6 0 1361.81 1.6349C1364.63 3.073 1366.93 5.36771 1368.37 8.19014C1370 11.3988 1370 15.5992 1370 24V309.992C1370 318.396 1370 322.597 1368.36 325.806C1366.93 328.629 1364.63 330.924 1361.81 332.362C1358.6 333.996 1354.4 333.995 1345.99 333.992L23.9923 333.571C15.594 333.568 11.3948 333.567 8.18716 331.932C5.36563 330.493 3.07179 328.199 1.63425 325.377C0 322.169 0 317.969 0 309.571V24Z" fill="white"/>
</mask>
<g mask="url(#mask0)">
<g opacity="0.7">
<path opacity="0.2" d="M467.063 485.193C393.683 501.225 428.761 349.115 572.319 472.66C715.878 596.204 716.659 442.894 795.525 427.67C874.391 412.447 935.339 466.04 984.208 457.527C1033.08 449.015 1043.42 384.829 1104.52 376.784C1165.62 368.739 1212.09 453.56 1280.58 373.026C1349.07 292.492 1663.88 181.88 1382.27 220.708" stroke="white" stroke-width="4.16"/>
<path opacity="0.2" d="M-226.972 78.9742C-300.352 95.0058 -265.274 -57.1034 -121.716 66.4409C21.8428 189.985 22.6239 36.6752 101.49 21.4516C180.356 6.22796 241.304 59.8209 290.173 51.3086C339.041 42.7962 349.39 -21.3897 410.485 -29.4348C471.581 -37.48 518.051 47.3409 586.543 -33.1931C655.035 -113.727 949.845 -224.339 668.235 -185.511" stroke="white" stroke-width="4.40286"/>
<path opacity="0.2" d="M-81.9717 191.974C-155.352 208.006 -120.274 55.8966 23.2842 179.441C166.843 302.985 167.624 149.675 246.49 134.452C325.356 119.228 386.304 172.821 435.173 164.309C484.041 155.796 494.39 91.6103 555.485 83.5652C616.581 75.52 718 142 789 41.0003C860 -59.9997 1094.84 -111.339 813.235 -72.5106" stroke="white" stroke-width="4.40286"/>
<path opacity="0.2" d="M827.983 409.794C969.983 421.794 1009.61 228.469 1088.47 213.245C1167.34 198.021 1228.29 251.614 1277.16 243.102C1326.02 234.59 1336.37 170.404 1397.47 162.359C1458.56 154.313 1505.03 239.134 1573.53 158.6C1642.02 78.0663 1936.83 -32.5455 1655.22 6.28278" stroke="white" stroke-width="4.40286"/>
<path opacity="0.2" d="M106 506C32.6189 522.032 58.4409 236.456 202 360C345.558 483.544 341.764 274.805 420.63 259.581C499.495 244.357 560.444 297.95 609.312 289.438C658.181 280.926 668.53 216.74 729.625 208.695C790.721 200.649 837.191 285.47 905.683 204.936C974.175 124.402 959.14 19.1296 1105.14 41.1296C1251.14 63.1296 1285.5 46 1285.5 -0.999984" stroke="white" stroke-width="4.40286"/>
</g>
</g>
<defs>
<linearGradient id="paint0_linear" x1="-21.227" y1="-297.715" x2="633.005" y2="607.743" gradientUnits="userSpaceOnUse">
<stop stop-color="#FE583D"/>
<stop offset="1" stop-color="#FE7F4A"/>
</linearGradient>
</defs>
</svg>
